<?xml version="1.0" encoding="utf-8"?>
<!-- Generator: Adobe Illustrator 24.3.0, SVG Export Plug-In . SVG Version: 6.00 Build 0)  -->
<svg version="1.1" id="Layer_3" xmlns="http://www.w3.org/2000/svg" xmlns:xlink="http://www.w3.org/1999/xlink" x="0px" y="0px"
	 viewBox="0 0 48 48" style="enable-background:new 0 0 48 48;" xml:space="preserve">
<g>
	<g>
		<path style="fill:#1AC9AB;" d="M28,31c0-0.4-0.3-0.7-0.7-0.6c0,0-1.9,0.5-3.3,0.5s-3.3-0.5-3.3-0.5C20.3,30.3,20,30.6,20,31v2.2
			c0,0.4,0.3,0.8,0.8,0.8h6.5c0.4,0,0.8-0.3,0.8-0.8V31z"/>
	</g>
	<g>
		<path style="fill:#1AC9AB;" d="M35.5,2.8c0-0.8-0.7-1.5-1.5-1.5H14c-0.8,0-1.5,0.7-1.5,1.5v12.5c0,3.9,1.2,7.5,3.3,10
			c2.1,2.6,5,4,8.2,4s6.1-1.4,8.2-4c2.1-2.6,3.3-6.1,3.3-10L35.5,2.8L35.5,2.8z"/>
	</g>
	<g>
		<path style="fill:#1AC9AB;" d="M11.1,18.3c-2.1-0.8-3-2.6-3-5.5V6h2.8V3H6.5C5.7,3,5,3.6,5,4.5v8.3c0,5,2.4,8.1,6.9,8.8
			C11.5,20.6,11.2,19.4,11.1,18.3z"/>
	</g>
	<g>
		<path style="fill:#1AC9AB;" d="M14,36.2c-0.8,0-1.5,0.7-1.5,1.5v7.5c0,0.8,0.7,1.5,1.5,1.5h20c0.8,0,1.5-0.7,1.5-1.5v-7.5
			c0-0.8-0.7-1.5-1.5-1.5H14z"/>
	</g>
	<g>
		<path style="fill:#1AC9AB;" d="M41.5,3h-4.3v3H40v6.8c0,3-1,4.8-3,5.5c-0.2,1.2-0.4,2.3-0.8,3.3c4.4-0.7,6.9-3.8,6.9-8.8V4.5
			C43,3.6,42.3,3,41.5,3z"/>
	</g>
</g>
</svg>
