<?xml version="1.0" encoding="utf-8"?>
<!-- Generator: Adobe Illustrator 25.2.3, SVG Export Plug-In . SVG Version: 6.00 Build 0)  -->
<svg version="1.1" id="Layer_1" focusable="false" xmlns="http://www.w3.org/2000/svg" xmlns:xlink="http://www.w3.org/1999/xlink"
	 x="0px" y="0px" viewBox="0 0 512 512" style="enable-background:new 0 0 512 512;" xml:space="preserve">
<style type="text/css">
	.st0{fill:#00973C;}
</style>
<path class="st0" d="M256,13C121.8,13,13,121.8,13,256s108.8,243,243,243s243-108.8,243-243S390.2,13,256,13z M367.4,277.5
	l-99.8,103c-6.4,6.7-16.9,6.7-23.4,0l-99.8-103c-29-30-27.3-79.6,5.1-107.2c28.3-24.1,70.3-19.7,96.2,7l10.2,10.5l10.2-10.5
	c25.9-26.8,68-31.1,96.2-7C394.8,197.9,396.5,247.5,367.4,277.5z"/>
</svg>
