<svg xmlns="http://www.w3.org/2000/svg" version="1" width="900" height="600"><rect width="900" height="600" ry="2.7" fill="#002490"/><g fill="#fff"><path d="M248.1 150S385 241.5 549 237.5c0 0 123.4.9 60.3-83 0 0 59 38.6 27.6 75.4 0 0-16.6 20.8-59 21.2 0 0-174.9 12.4-329.8-101.1"/><path d="M242.7 245.7s152 101.7 334.2 97.1c0 0 137 1 67-92.2 0 0 65.5 43 30.6 83.8 0 0-18.4 23.1-65.5 23.6 0 0-194.2 13.7-366.3-112.3"/><path d="M273.5 309.1s123.6 82.7 271.9 79c0 0 111.5 1 54.5-75 0 0 53.3 35 24.9 68.2 0 0-15 18.8-53.3 19.2 0 0-158 11.2-298-91.4"/><path d="M330.7 367.2s82.4 55.1 181.1 52.7c0 0 74.3.5 36.3-50 0 0 35.5 23.2 16.6 45.4 0 0-10 12.5-35.5 12.8 0 0-105.3 7.4-198.5-60.9M171.6 172s191.5 128.2 421 122.5c0 0 172.6 1.3 84.4-116.2 0 0 82.5 54 38.6 105.5 0 0-23.2 29.2-82.6 29.8 0 0-244.7 17.3-461.4-141.5M456.5 446.7c-.6 3.5-11.8 4.4-25 1.9-13.1-2.5-23.3-7.4-22.7-11 .6-3.5 11.8-4.3 25-1.9 13.1 2.5 23.3 7.4 22.7 11"/></g></svg>