<svg id="Layer_2" data-name="Layer 2" xmlns="http://www.w3.org/2000/svg" xmlns:xlink="http://www.w3.org/1999/xlink" viewBox="0 0 1015.7 539.9"><defs><linearGradient id="linear-gradient" x1="498.2" y1="299.6" x2="587.2" y2="299.6" gradientUnits="userSpaceOnUse"><stop offset="0" stop-color="#ffb200"/><stop offset="1" stop-color="#ff5a00"/></linearGradient><linearGradient id="linear-gradient-2" x1="346.1" y1="329.5" x2="703.9" y2="329.5" xlink:href="#linear-gradient"/><style>.cls-2{fill:#3a3a3a}.cls-4{fill:#ff8f17}.cls-9{fill:#f56f00}</style></defs><path fill="#4c4c4c" d="M507.8 45.7H17v494.2h981.6V45.7H507.8z"/><path class="cls-2" d="M34.2 278.1h981.6v285H34.2z" transform="translate(-17.2 -23.3)"/><path class="cls-2" d="M34.2 290.8h981.6V563H34.2z" transform="translate(-17.2 -23.3)"/><path d="M17.2 23.3h1015.6V69H17.2z" transform="translate(-17.2 -23.3)" fill="#ff9811"/><path class="cls-4" d="M17.2 203.7h17v148.8h-17zM1015.8 203.7h17v148.8h-17z" transform="translate(-17.2 -23.3)"/><path d="M34.2 69h981.6v22.4H34.2z" transform="translate(-17.2 -23.3)" fill="#ff7200"/><path fill="#fff" d="M363 160.7h293.4v285.5H363z"/><path d="M673.5 184v285.4H380.3V184h293.2m.2-.2H380v285.7h293.6V183.9z" transform="translate(-17.2 -23.3)"/><path d="M555.2 254.9a61 61 0 00-42.1 17l-15 55.8c7.7 13 19.7 16.7 33 16.7 24.6 0 47.7-19.7 54.3-44.6s-5.7-44.9-30.2-44.9z" transform="translate(-17.2 -23.3)" fill="url(#linear-gradient)"/><path d="M644 150.5H406a60 60 0 00-60 60v238a60 60 0 0060 60h238a60 60 0 0060-60v-238a60 60 0 00-60-60zm.5 149.3c-14.3 53.5-66 94-114.6 94a72.7 72.7 0 01-45.7-13.8l-20 73h-60l65.4-243h60.1l-2.6 9.7a109.6 109.6 0 0153-13.8c48.7 0 78.8 40.1 64.4 94z" transform="translate(-17.2 -23.3)" fill="url(#linear-gradient-2)"/><path class="cls-9" d="M555.2 254.9a61 61 0 00-42.1 17l-15 55.8c7.7 13 19.7 16.7 33 16.7 24.6 0 47.7-19.7 54.3-44.6s-5.7-44.9-30.2-44.9zm23 43c-5.8 21.9-26.5 39.1-47 39.1-11.8 0-19.7-3.3-25-10.6l13.5-50.2a53 53 0 0135.5-13.8c8.6 0 15.4 3 19.7 8.5 5 6.5 6.2 16.3 3.4 27z" transform="translate(-17.2 -23.3)"/><path class="cls-9" d="M640.4 226.2a73.6 73.6 0 00-60.2-27.7 115.7 115.7 0 00-41.8 7.7l1-3.6h-75.5l-69.4 257.9H470l18.7-68.7a85.7 85.7 0 0041.2 9.4c25.5 0 52-10.2 74.8-28.6 23-18.6 39.7-43.8 47-70.8 7.8-29.2 3.8-56-11.3-75.7zm4 73.6c-14.2 53.5-66 94-114.6 94a72.7 72.7 0 01-45.6-13.8l-20 73h-60l65.4-243h60.1l-2.6 9.7a109.6 109.6 0 0153-13.8c48.7 0 78.8 40.1 64.4 94z" transform="translate(-17.2 -23.3)"/></svg>