<svg id="Layer_1" data-name="Layer 1" xmlns="http://www.w3.org/2000/svg" xmlns:xlink="http://www.w3.org/1999/xlink" viewBox="0 0 1313.85 533.29"><defs><linearGradient id="linear-gradient" x1="657.02" y1="167.29" x2="703.43" y2="167.29" gradientUnits="userSpaceOnUse"><stop offset="0" stop-color="#ffb200"/><stop offset="1" stop-color="#ff5a00"/></linearGradient><linearGradient id="linear-gradient-2" x1="577.74" y1="182.84" x2="764.25" y2="182.84" xlink:href="#linear-gradient"/><style>.cls-2{fill:#3a3a3a}.cls-4{fill:#ff8f17}.cls-5{fill:#ff7200}.cls-6{fill:#fff}.cls-9{fill:#f56f00}</style></defs><path fill="#4c4c4c" d="M646.85 23.83H391.07v257.51h511.55V23.83H646.85z"/><path class="cls-2" d="M415.22 156.09h511.55v148.5H415.22z" transform="translate(-24.15 -23.25)"/><path class="cls-2" d="M415.22 162.67h511.55v141.92H415.22z" transform="translate(-24.15 -23.25)"/><path d="M406.34 23.25h529.31v23.83H406.34z" transform="translate(-24.15 -23.25)" fill="#ff9811"/><path class="cls-4" d="M406.34 117.31h8.88v77.55h-8.88zM926.77 117.31h8.88v77.55h-8.88z" transform="translate(-24.15 -23.25)"/><path class="cls-5" d="M415.22 47.08h511.55v11.71H415.22z" transform="translate(-24.15 -23.25)"/><path class="cls-6" d="M571.32 232.55l.05-148.84 152.97.05-.05 148.79H571.32z"/><path d="M748.39 107.06v148.69H595.56V107.06h152.83m.1-.1h-153v148.89h153V107z" transform="translate(-24.15 -23.25)"/><path d="M686.72 144c-7 0-14.31 2.13-21.93 8.9l-7.77 29c4 6.77 10.24 8.7 17.2 8.7 12.77 0 24.81-10.25 28.28-23.21S699.49 144 686.72 144z" transform="translate(-24.15 -23.25)" fill="url(#linear-gradient)"/><path d="M733 89.58H609a31.24 31.24 0 00-31.24 31.24v124A31.24 31.24 0 00609 276.09h124a31.24 31.24 0 0031.24-31.24v-124A31.24 31.24 0 00733 89.58zm.25 77.81c-7.46 27.86-34.4 49-59.74 49-10.25 0-18-2.71-23.81-7.16l-10.36 38.06H608l34.1-126.67h31.34l-1.35 5a57.15 57.15 0 0127.65-7.16c25.36-.02 41.04 20.87 33.52 48.93z" transform="translate(-24.15 -23.25)" fill="url(#linear-gradient-2)"/><path class="cls-9" d="M686.72 144c-7 0-14.31 2.13-21.93 8.9l-7.77 29c4 6.77 10.24 8.7 17.2 8.7 12.77 0 24.81-10.25 28.28-23.21S699.49 144 686.72 144zm12 22.41c-3.06 11.41-13.83 20.34-24.54 20.34-6.16 0-10.24-1.71-13-5.5l7-26.21c5.8-4.89 11.71-7.17 18.5-7.17 4.49 0 8 1.54 10.29 4.46 2.64 3.37 3.28 8.5 1.79 14.06z" transform="translate(-24.15 -23.25)"/><path class="cls-9" d="M731.13 129c-7.14-9.3-18.28-14.42-31.38-14.42a60.25 60.25 0 00-21.75 4.04l.51-1.92h-39.37L603 251.11h39.35l9.74-35.81c6 3.26 13.22 4.91 21.47 4.91 13.27 0 27.13-5.29 39-14.89A72.12 72.12 0 00737 168.39c4.07-15.18 2-29.17-5.87-39.39zm2.13 38.4c-7.46 27.86-34.4 49-59.74 49-10.25 0-18-2.71-23.81-7.16l-10.36 38.06H608l34.1-126.67h31.34l-1.35 5a57.15 57.15 0 0127.65-7.16c25.36-.03 41.04 20.86 33.52 48.92z" transform="translate(-24.15 -23.25)"/><path class="cls-5" d="M131.79 464.62c0 31.45-20.56 53.42-50.6 53.42-18.94 0-33.46-8.67-41.32-23.38v61.88H24.15V411.21h15.72v23c7.86-14.91 22.38-23.58 40.92-23.58 30.04-.03 51 22.14 51 53.99zm-15.92-.4c0-22.78-15.73-39.51-37.9-39.51-22.38 0-38.1 16.53-38.1 39.51 0 23.18 15.72 39.51 38.1 39.51 22.17 0 37.9-16.53 37.9-39.51zM160 434.79c7.05-15.52 20.16-24 38.1-24.19v15.92c-22.37-.4-36.28 13.48-38.1 34.48v56.45h-15.71V411.21H160zM295.67 470.47H209c2.82 20.76 17.94 33.86 38.5 33.86 13.1 0 24.59-4.63 32.86-13.3l8.64 9.27c-10.06 11.29-25 17.7-42.72 17.7-31.24 0-52.81-22-52.81-53.62s21.77-53.62 52.61-53.62c34.27-.16 51.2 23.63 49.59 59.71zm-14.11-12.9c-1-20.36-14.72-33.26-35.48-33.26-20.16 0-34.67 13.1-37.09 33.26zM483.13 451.92v65.52h-15.72v-61.28c0-19-11.09-30-29.43-30-22 .6-34.67 16.33-34.67 39.11v52.21h-15.92v-61.32c0-19-10.89-30-29.44-30-21.77.6-34.87 16.33-34.87 39.11v52.21h-15.52V411.21h15.52v24c7.06-16.53 21.37-24.39 40.52-24.59 19.95 0 33.66 10.28 38.1 27.82 6.65-18.75 21.57-27.62 41.92-27.82 24.8-.02 39.51 15.7 39.51 41.3zM520.83 380.77c0 6.24-4.44 10.88-10.29 10.88s-10.27-4.64-10.27-10.88 4.43-10.89 10.27-10.89 10.29 4.64 10.29 10.89zm-17.94 136.67V411.21h15.52v106.23zM633.71 517.44H618v-24c-7.07 16.56-21.18 24.4-40.33 24.56-24.8 0-39.71-15.72-39.71-41.32v-65.47h15.72v61.27c0 18.75 11.09 29.84 29.43 29.84 22-.41 34.87-16.33 34.87-38.91v-52.2h15.73zM832.46 451.92v65.52h-15.72v-61.28c0-19-11.09-30-29.44-30-22 .6-34.67 16.33-34.67 39.11v52.21h-15.92v-61.32c0-19-10.89-30-29.43-30-21.77.6-34.87 16.33-34.87 39.11v52.21h-15.52V411.21h15.52v24c7.05-16.53 21.36-24.39 40.51-24.59 20 0 33.67 10.28 38.1 27.82 6.65-18.75 21.57-27.62 41.93-27.82 24.79-.02 39.51 15.7 39.51 41.3z" transform="translate(-24.15 -23.25)"/><path class="cls-6" d="M957.84 517.44h-15.73v-22.78c-7.86 14.91-22.37 23.58-41.32 23.58-30.24 0-51.2-22.37-51.2-54 0-31.85 21-53.82 51-53.82 18.95 0 33.66 8.67 41.52 23.78v-66.33h15.73zm-15.73-52.82c0-23.18-15.92-39.91-38.3-39.91-22.57 0-38.5 16.73-38.5 39.91 0 23 15.93 39.51 38.5 39.51 22.38 0 38.3-16.53 38.3-39.51zM997.75 434.79c7-15.52 20.15-24 38.09-24.19v15.92c-22.37-.4-36.28 13.51-38.09 34.47v56.45H982V411.21h15.73zM1138.85 464.22c0 31.85-22.38 53.82-53.82 53.82s-53.83-22-53.83-53.82c0-31.65 22.38-53.42 53.83-53.42s53.82 21.77 53.82 53.42zm-91.92.2c0 23.38 15.92 39.51 38.1 39.51s38.09-16.13 38.09-39.51c0-23.18-15.92-39.31-38.09-39.31s-38.1 16.13-38.1 39.31zM1260 464.62c0 31.45-20.56 53.42-50.59 53.42-19 0-33.47-8.67-41.33-23.38v61.88h-15.72V411.21h15.72v23c7.86-14.91 22.38-23.58 40.92-23.58 30-.03 51 22.14 51 53.99zm-15.92-.4c0-22.78-15.72-39.51-37.9-39.51-22.37 0-38.1 16.53-38.1 39.51 0 23.18 15.73 39.51 38.1 39.51 22.17 0 37.89-16.53 37.89-39.51zM1334.57 420.27l-6 12.5a56.14 56.14 0 00-28.83-8.67c-11.89 0-21 4.24-21 14.12 0 23.58 59.26 11.49 59.26 49.58 0 21-18.55 30.24-38.9 30.24-15.12 0-30.64-5.24-40.72-14.92l6-11.89c9.08 8.47 22.78 13.5 35.28 13.5s22.58-4.63 22.78-15.11c.6-25.6-58.86-12.5-58.66-50.2 0-20.35 17.54-28.82 36.89-28.82 12.74 0 25.03 3.63 33.9 9.67z" transform="translate(-24.15 -23.25)"/></svg>