<svg version="1.1" xmlns="http://www.w3.org/2000/svg" x="0" y="0" viewBox="0 0 124.9 124.9" xml:space="preserve"><style>.st0{fill:#fff}</style><path class="st0" d="M19.8 96.8h22l3-17.9H23.5l-3.7 17.9zM27 83.2h12.7l-1.6 9.3h-13l1.9-9.3zM47.6 61.3L43 64l-.4 2.5H30.2l1.9-8.8h10.3l6.4-3.7.1-.3H28.8l-3.6 16.9H46z"/><path class="st0" d="M49.8 54.7l-10.9 6.4-2.9-2.8-2.8 1.8 5 5.2 14.3-8.4zM124 18.3l-5.4-6.4a4 4 0 00-5.6-.5l-4.6 3.9 10.5 12.4 4.6-3.9a3.9 3.9 0 00.5-5.5z"/><path class="st0" d="M104.1 43.2l-4.6 3.9 15 61.9H6.9l15.9-65.6h48.6l6.7-5.4H18.5L0 114.4h121.4z"/><path class="st0" d="M106.4 17.1L64.1 52.8l10.4 12.4 23.8-20.1 5.2-4.4 13.3-11.2zM55.4 70.8l16.4-3.9L62 55.2z"/></svg>
