<?xml version="1.0" encoding="utf-8"?>
<!-- Generator: Adobe Illustrator 24.3.0, SVG Export Plug-In . SVG Version: 6.00 Build 0)  -->
<svg version="1.1" id="Layer_1" xmlns="http://www.w3.org/2000/svg" xmlns:xlink="http://www.w3.org/1999/xlink" x="0px" y="0px"
	 viewBox="0 0 48 48" style="enable-background:new 0 0 48 48;" xml:space="preserve">
<path id="XMLID_320_" style="fill:#1AC9AB;" d="M41,22.8v-4.1c0-9.4-7.6-17-17-17c-9.4,0-17,7.6-17,17v4.1c-1.8,1.4-3,3.6-3,6
	c0,4.3,3.6,7.8,8,7.8v8.6c0,0.6,0.5,1.1,1.1,1.1h1.3c0.6,0,1.1-0.5,1.1-1.1v-4c0-0.6,0.5-1.1,1.1-1.1h0.6c0.6,0,1.1,0.5,1.1,1.1v4
	c0,0.6,0.5,1.1,1.1,1.1h2c0.6,0,1.1-0.5,1.1-1.1v-4c0-0.6,0.5-1.1,1.1-1.1h0.6c0.6,0,1.1,0.5,1.1,1.1v4c0,0.6,0.5,1.1,1.1,1.1h2
	c0.6,0,1.1-0.5,1.1-1.1v-4c0-0.6,0.5-1.1,1.1-1.1h0.6c0.6,0,1.1,0.5,1.1,1.1v4c0,0.6,0.5,1.1,1.1,1.1h1.3c0.6,0,1.1-0.5,1.1-1.1
	v-8.6c4.4,0,8-3.5,8-7.8C44,26.4,42.8,24.3,41,22.8z M16.1,29.2c-2.7,0-4.9-2.2-4.9-4.9c0-1.8,1-3.4,2.5-4.3l7.2,5
	C20.6,27.3,18.6,29.2,16.1,29.2z M24,35.4c-1.5,0-2.6-1.2-2.6-2.6c0-1.5,1.2-4.6,2.6-4.6c1.5,0,2.6,3.2,2.6,4.6
	C26.6,34.2,25.5,35.4,24,35.4z M31.9,29.2c-2.5,0-4.5-1.8-4.8-4.2l7.2-5c1.5,0.8,2.5,2.4,2.5,4.3C36.8,27,34.6,29.2,31.9,29.2z"/>
</svg>
