<svg xmlns="http://www.w3.org/2000/svg" width="1000" height="500"><path fill="#0073cf" d="M0 0h1000v500H0z"/><path d="M532.6 177.6a32.6 32.6 0 01-65.2 0 32.6 32.6 0 1165.2 0z" fill="#fecb00"/><path d="M447.3 56.3c-55 1-111.6 133.2 20.5 200.2v187.2h16.9V252.5c-14-4.5-61.8-35.4-61.8-75.9 0-16.9 10.6-44.8 30.7-57.6 12.3-7.9 24.5-16 24.5-32.6S464.6 56.3 448 56.3h-.7zm103.8 0a30.1 30.1 0 00-29.2 30c0 16.7 12.2 24.8 24.5 32.7 20.1 12.8 30.7 40.7 30.7 57.6 0 40.5-47.8 71.4-61.8 76v191.1h16.9V256.5c132.6-67.3 75-200.2 19.8-200.2h-1zm-191.3 47c-14.7.6-24.7 11.4-24.7 28.2 0 31.2 54.1 113.3 109.6 133.8v178.4h16.9v-186c-30.6-17-55.6-39-67.6-64.6a110.3 110.3 0 01-11.4-50.1c0-12.1 1-11.1 1-18.8 0-19.3-16.7-20.9-23.4-20.9h-.4zm278.8 0c-7.3.2-22.2 2.7-22.2 21 0 7.6 1 6.6 1 18.7 0 8.9-.1 26-11.4 50.1-12 25.6-37 47.6-67.6 64.7v186h16.9V265.2c55.5-20.5 109.6-102.6 109.6-133.8 0-17-10.2-27.7-25-28.2h-1.3zM322 150.6c-8 .4-15.6 6.5-15.6 17.9 0 3.7-.3 9 9.8 21.4 28.7 35.3 91.6 78.5 105.5 81.7v172.1h16.9V266.5c-32.4-14.3-79-60-99.4-105a17.9 17.9 0 00-17.2-10.9zm354.5 0a18 18 0 00-15.5 11c-20.4 45-67 90.6-99.4 105v177.1h16.9V271.6c14-3.2 76.8-46.4 105.5-81.7 10-12.5 9.8-17.7 9.8-21.4 0-12.2-8.6-18.3-17.3-17.9zm-374.7 38.8c-8 .5-13.6 9-13.6 14.2 0 18.2 83.2 73 107.7 75.5v164.6h19.6V272.8c-19.2-8.4-80.4-52.7-98.4-74.8-5.5-6.7-10.8-9-15.3-8.6zm395 0c-4.2.3-8.8 2.7-13.7 8.6-18 22.1-79.2 66.4-98.4 74.8v171h19.6V279c24.5-2.6 107.7-57.3 107.7-75.5 0-5.4-6.4-14.8-15.3-14.2zM490.8 253v190.6H509V253.1h-18z" fill="#fff"/></svg>