<?xml version="1.0" encoding="utf-8"?>
<!-- Generator: Adobe Illustrator 24.3.0, SVG Export Plug-In . SVG Version: 6.00 Build 0)  -->
<svg version="1.1" id="Layer_2" xmlns="http://www.w3.org/2000/svg" xmlns:xlink="http://www.w3.org/1999/xlink" x="0px" y="0px"
	 viewBox="0 0 48 48" style="enable-background:new 0 0 48 48;" xml:space="preserve">
<g>
	<g>
		<g>
			<path style="fill:#1AC9AB;" d="M37.3,15.6L37.3,15.6l-4.6,0c-2.1,0-3.8-1.7-3.8-3.8v-5c0-3.1-2.5-5.6-5.6-5.6
				c-3,0-5.4,2.3-5.6,5.3c0,0,0,0.1,0,0.1v4.4h-2.9c-1,0-1.8,0.8-1.8,1.8v4.1c0.6-0.2,1.2-0.4,1.8-0.6c3.1-0.7,6.4-0.6,9.4,0.6v-4.1
				c0-1-0.8-1.8-1.8-1.8h-2.8V6.8c0-2.1,1.7-3.8,3.8-3.8s3.8,1.7,3.8,3.8v5c0,3.1,2.5,5.6,5.6,5.6h4.6c0.5,0,0.9-0.4,0.9-0.9
				C38.2,16,37.8,15.6,37.3,15.6z"/>
		</g>
	</g>
	<g>
		<g>
			<path style="fill:#1AC9AB;" d="M37.2,9.7c-0.5,0-0.9,0.4-0.9,0.9v2.9c0,0.5,0.4,0.9,0.9,0.9s0.9-0.4,0.9-0.9v-2.9
				C38.2,10.2,37.8,9.7,37.2,9.7z"/>
		</g>
	</g>
	<g>
		<g>
			<path style="fill:#1AC9AB;" d="M37.2,18.5c-0.5,0-0.9,0.4-0.9,0.9v2.9c0,0.5,0.4,0.9,0.9,0.9s0.9-0.4,0.9-0.9v-2.9
				C38.2,18.9,37.8,18.5,37.2,18.5z"/>
		</g>
	</g>
	<g>
		<g>
			<g>
				<path style="fill:#1AC9AB;" d="M39.4,15.3C39.4,15.3,39.4,15.3,39.4,15.3C39.3,15.3,39.3,15.3,39.4,15.3L39.4,15.3z"/>
				<path style="fill:#1AC9AB;" d="M41.9,11.7c-0.3-0.3-0.9-0.3-1.2,0l-2,2.1c-0.4,0.4-0.4,0.9,0,1.3c0.2,0.2,0.4,0.3,0.6,0.3
					c0.2,0,0.5-0.1,0.6-0.3l2-2.1C42.4,12.6,42.3,12,41.9,11.7z"/>
			</g>
		</g>
	</g>
	<g>
		<g>
			<path style="fill:#1AC9AB;" d="M42,20l-2-2c-0.3-0.4-0.9-0.5-1.3-0.2c-0.4,0.3-0.5,0.9-0.2,1.3c0.1,0.1,0.1,0.1,0.2,0.2l2,2
				c0.4,0.3,1,0.3,1.3-0.1C42.3,20.8,42.3,20.3,42,20z"/>
		</g>
	</g>
	<g>
		<g>
			<path style="fill:#1AC9AB;" d="M43.1,15.6h-2.9c-0.5,0-0.9,0.4-0.9,0.9c0,0.5,0.4,0.9,0.9,0.9h2.9c0.5,0,0.9-0.4,0.9-0.9
				C44,16,43.6,15.6,43.1,15.6z"/>
		</g>
	</g>
	<g>
		<g>
			<path style="fill:#1AC9AB;" d="M18.6,17.6C10.5,17.6,4,24.1,4,32.2s6.5,14.6,14.6,14.6c8.1,0,14.6-6.5,14.6-14.6
				C33.2,24.2,26.7,17.6,18.6,17.6z M16.9,43.5L16.9,43.5c-5.7,0-10.3-4.6-10.3-10.3l0,0c0-0.5,0.4-0.9,0.9-0.9s0.9,0.4,0.9,0.9
				c0,4.6,3.8,8.4,8.4,8.4c0.5,0,0.9,0.4,0.9,0.9S17.4,43.5,16.9,43.5z"/>
		</g>
	</g>
</g>
</svg>
