<svg xmlns="http://www.w3.org/2000/svg" width="31.273" height="31.273"><path fill="#fff" d="M25.721 6.393c-3.062 0-5.553 2.49-5.553 5.552 0 .512.092.999.223 1.47l-2.225 3.511c-.295-.068-.599-.113-.913-.113-.983 0-1.874.367-2.575.954l-6.634-2.911c.005-.079.023-.152.023-.231 0-2.224-1.811-4.033-4.034-4.033S0 12.4 0 14.625c0 2.225 1.81 4.034 4.033 4.034.828 0 1.598-.25 2.238-.681l6.966 3.058c.102 2.135 1.855 3.846 4.016 3.846 2.224 0 4.033-1.81 4.033-4.034 0-.167-.028-.327-.05-.489l3.736-2.936c.246.035.492.076.748.076 3.062 0 5.553-2.491 5.553-5.553 0-3.064-2.491-5.553-5.552-5.553zM2.142 14.625c0-1.042.849-1.891 1.891-1.891 1.043 0 1.892.848 1.892 1.891 0 1.043-.849 1.891-1.892 1.891-1.042 0-1.891-.848-1.891-1.891zm15.111 8.178c-1.08 0-1.958-.877-1.958-1.957 0-1.079.878-1.959 1.958-1.959 1.079 0 1.957.879 1.957 1.959s-.878 1.957-1.957 1.957zm8.468-7.686c-1.75 0-3.172-1.423-3.172-3.172s1.422-3.172 3.172-3.172 3.172 1.423 3.172 3.172-1.422 3.172-3.172 3.172z"/></svg>