<?xml version="1.0" encoding="utf-8"?>
<!-- Generator: Adobe Illustrator 24.3.0, SVG Export Plug-In . SVG Version: 6.00 Build 0)  -->
<svg version="1.1" id="Layer_4" xmlns="http://www.w3.org/2000/svg" xmlns:xlink="http://www.w3.org/1999/xlink" x="0px" y="0px"
	 viewBox="0 0 48 48" style="enable-background:new 0 0 48 48;" xml:space="preserve">
<g>
	<g>
		<g>
			<path style="fill:#1AC9AB;" d="M39.7,8.3C35.5,4.1,29.9,1.8,24,1.8S12.5,4.1,8.3,8.3S1.8,18.1,1.8,24s2.3,11.5,6.5,15.7
				s9.8,6.5,15.7,6.5s11.5-2.3,15.7-6.5s6.5-9.8,6.5-15.7S43.9,12.5,39.7,8.3z M24,41.8c-9.8,0-17.8-8-17.8-17.8c0,0,0,0,0,0
				c0,0,0,0,0,0c0,0,0,0,0,0c0-9.7,7.9-17.6,17.6-17.7c0,0,0,0,0.1,0c0,0,0,0,0,0c0,0,0.1,0,0.1,0c9.8,0,17.8,8,17.8,17.8
				S33.8,41.8,24,41.8z"/>
		</g>
	</g>
	<g>
		<g>
			<path style="fill:#1AC9AB;" d="M37.5,25.1c-0.7,0-1.3-0.6-1.3-1.3c0-0.7,0.6-1.3,1.3-1.3h1.6c-0.7-7.3-6.6-13.1-14-13.6v1.4
				c0,0.7-0.6,1.3-1.3,1.3c-0.7,0-1.3-0.6-1.3-1.3V8.9c-7.2,0.7-13,6.5-13.6,13.7h1.4c0.7,0,1.3,0.6,1.3,1.3s-0.6,1.3-1.3,1.3H8.9
				c0.6,7.4,6.5,13.2,13.8,13.9v-1.7c0-0.7,0.6-1.3,1.3-1.3s1.3,0.6,1.3,1.3v1.7c7.4-0.6,13.3-6.6,13.8-14.1H37.5z M29.3,20.5
				l-4.4,4.4c-0.2,0.2-0.6,0.4-0.9,0.4c-0.3,0-0.7-0.1-0.9-0.4l-7.6-7.6c-0.5-0.5-0.5-1.3,0-1.9c0.5-0.5,1.3-0.5,1.9,0l6.7,6.7
				l3.5-3.5c0.5-0.5,1.3-0.5,1.9,0C29.8,19.2,29.8,20,29.3,20.5z"/>
		</g>
	</g>
</g>
</svg>
