<?xml version="1.0" encoding="utf-8"?>
<!-- Generator: Adobe Illustrator 24.3.0, SVG Export Plug-In . SVG Version: 6.00 Build 0)  -->
<svg version="1.1" xmlns="http://www.w3.org/2000/svg" xmlns:xlink="http://www.w3.org/1999/xlink" x="0px" y="0px"
	 viewBox="0 0 48 48" style="enable-background:new 0 0 48 48;" xml:space="preserve">
<g id="Layer_1" style="display:none;">
	<path id="XMLID_320_" style="display:inline;fill:#1AC9AB;" d="M41,22.8v-4.1c0-9.4-7.6-17-17-17c-9.4,0-17,7.6-17,17v4.1
		c-1.8,1.4-3,3.6-3,6c0,4.3,3.6,7.8,8,7.8v8.6c0,0.6,0.5,1.1,1.1,1.1h1.3c0.6,0,1.1-0.5,1.1-1.1v-4c0-0.6,0.5-1.1,1.1-1.1h0.6
		c0.6,0,1.1,0.5,1.1,1.1v4c0,0.6,0.5,1.1,1.1,1.1h2c0.6,0,1.1-0.5,1.1-1.1v-4c0-0.6,0.5-1.1,1.1-1.1h0.6c0.6,0,1.1,0.5,1.1,1.1v4
		c0,0.6,0.5,1.1,1.1,1.1h2c0.6,0,1.1-0.5,1.1-1.1v-4c0-0.6,0.5-1.1,1.1-1.1h0.6c0.6,0,1.1,0.5,1.1,1.1v4c0,0.6,0.5,1.1,1.1,1.1h1.3
		c0.6,0,1.1-0.5,1.1-1.1v-8.6c4.4,0,8-3.5,8-7.8C44,26.4,42.8,24.3,41,22.8z M16.1,29.2c-2.7,0-4.9-2.2-4.9-4.9c0-1.8,1-3.4,2.5-4.3
		l7.2,5C20.6,27.3,18.6,29.2,16.1,29.2z M24,35.4c-1.5,0-2.6-1.2-2.6-2.6c0-1.5,1.2-4.6,2.6-4.6c1.5,0,2.6,3.2,2.6,4.6
		C26.6,34.2,25.5,35.4,24,35.4z M31.9,29.2c-2.5,0-4.5-1.8-4.8-4.2l7.2-5c1.5,0.8,2.5,2.4,2.5,4.3C36.8,27,34.6,29.2,31.9,29.2z"/>
</g>
<g id="Layer_2" style="display:none;">
	<g style="display:inline;">
		<g>
			<g>
				<path style="fill:#1AC9AB;" d="M37.3,15.6L37.3,15.6l-4.6,0c-2.1,0-3.8-1.7-3.8-3.8v-5c0-3.1-2.5-5.6-5.6-5.6
					c-3,0-5.4,2.3-5.6,5.3c0,0,0,0.1,0,0.1v4.4h-2.9c-1,0-1.8,0.8-1.8,1.8v4.1c0.6-0.2,1.2-0.4,1.8-0.6c3.1-0.7,6.4-0.6,9.4,0.6
					v-4.1c0-1-0.8-1.8-1.8-1.8h-2.8V6.8c0-2.1,1.7-3.8,3.8-3.8s3.8,1.7,3.8,3.8v5c0,3.1,2.5,5.6,5.6,5.6h4.6c0.5,0,0.9-0.4,0.9-0.9
					C38.2,16,37.8,15.6,37.3,15.6z"/>
			</g>
		</g>
		<g>
			<g>
				<path style="fill:#1AC9AB;" d="M37.2,9.7c-0.5,0-0.9,0.4-0.9,0.9v2.9c0,0.5,0.4,0.9,0.9,0.9s0.9-0.4,0.9-0.9v-2.9
					C38.2,10.2,37.8,9.7,37.2,9.7z"/>
			</g>
		</g>
		<g>
			<g>
				<path style="fill:#1AC9AB;" d="M37.2,18.5c-0.5,0-0.9,0.4-0.9,0.9v2.9c0,0.5,0.4,0.9,0.9,0.9s0.9-0.4,0.9-0.9v-2.9
					C38.2,18.9,37.8,18.5,37.2,18.5z"/>
			</g>
		</g>
		<g>
			<g>
				<g>
					<path style="fill:#1AC9AB;" d="M39.4,15.3C39.4,15.3,39.4,15.3,39.4,15.3C39.3,15.3,39.3,15.3,39.4,15.3L39.4,15.3z"/>
					<path style="fill:#1AC9AB;" d="M41.9,11.7c-0.3-0.3-0.9-0.3-1.2,0l-2,2.1c-0.4,0.4-0.4,0.9,0,1.3c0.2,0.2,0.4,0.3,0.6,0.3
						c0.2,0,0.5-0.1,0.6-0.3l2-2.1C42.4,12.6,42.3,12,41.9,11.7z"/>
				</g>
			</g>
		</g>
		<g>
			<g>
				<path style="fill:#1AC9AB;" d="M42,20l-2-2c-0.3-0.4-0.9-0.5-1.3-0.2c-0.4,0.3-0.5,0.9-0.2,1.3c0.1,0.1,0.1,0.1,0.2,0.2l2,2
					c0.4,0.3,1,0.3,1.3-0.1C42.3,20.8,42.3,20.3,42,20z"/>
			</g>
		</g>
		<g>
			<g>
				<path style="fill:#1AC9AB;" d="M43.1,15.6h-2.9c-0.5,0-0.9,0.4-0.9,0.9c0,0.5,0.4,0.9,0.9,0.9h2.9c0.5,0,0.9-0.4,0.9-0.9
					C44,16,43.6,15.6,43.1,15.6z"/>
			</g>
		</g>
		<g>
			<g>
				<path style="fill:#1AC9AB;" d="M18.6,17.6C10.5,17.6,4,24.1,4,32.2s6.5,14.6,14.6,14.6c8.1,0,14.6-6.5,14.6-14.6
					C33.2,24.2,26.7,17.6,18.6,17.6z M16.9,43.5L16.9,43.5c-5.7,0-10.3-4.6-10.3-10.3l0,0c0-0.5,0.4-0.9,0.9-0.9s0.9,0.4,0.9,0.9
					c0,4.6,3.8,8.4,8.4,8.4c0.5,0,0.9,0.4,0.9,0.9S17.4,43.5,16.9,43.5z"/>
			</g>
		</g>
	</g>
</g>
<g id="Layer_3" style="display:none;">
	<g>
		<g style="display:inline;">
			<path style="fill:#1AC9AB;" d="M28,31c0-0.4-0.3-0.7-0.7-0.6c0,0-1.9,0.5-3.3,0.5s-3.3-0.5-3.3-0.5C20.3,30.3,20,30.6,20,31v2.2
				c0,0.4,0.3,0.8,0.8,0.8h6.5c0.4,0,0.8-0.3,0.8-0.8V31z"/>
		</g>
		<g style="display:inline;">
			<path style="fill:#1AC9AB;" d="M35.5,2.8c0-0.8-0.7-1.5-1.5-1.5H14c-0.8,0-1.5,0.7-1.5,1.5v12.5c0,3.9,1.2,7.5,3.3,10
				c2.1,2.6,5,4,8.2,4s6.1-1.4,8.2-4c2.1-2.6,3.3-6.1,3.3-10L35.5,2.8L35.5,2.8z"/>
		</g>
		<g style="display:inline;">
			<path style="fill:#1AC9AB;" d="M11.1,18.3c-2.1-0.8-3-2.6-3-5.5V6h2.8V3H6.5C5.7,3,5,3.6,5,4.5v8.3c0,5,2.4,8.1,6.9,8.8
				C11.5,20.6,11.2,19.4,11.1,18.3z"/>
		</g>
		<g style="display:inline;">
			<path style="fill:#1AC9AB;" d="M14,36.2c-0.8,0-1.5,0.7-1.5,1.5v7.5c0,0.8,0.7,1.5,1.5,1.5h20c0.8,0,1.5-0.7,1.5-1.5v-7.5
				c0-0.8-0.7-1.5-1.5-1.5H14z"/>
		</g>
		<g style="display:inline;">
			<path style="fill:#1AC9AB;" d="M41.5,3h-4.3v3H40v6.8c0,3-1,4.8-3,5.5c-0.2,1.2-0.4,2.3-0.8,3.3c4.4-0.7,6.9-3.8,6.9-8.8V4.5
				C43,3.6,42.3,3,41.5,3z"/>
		</g>
	</g>
</g>
<g id="Layer_5">
	<g>
		<g>
			<path style="fill:#4C4D5E;" d="M28,31c0-0.4-0.3-0.7-0.7-0.6c0,0-1.9,0.5-3.3,0.5s-3.3-0.5-3.3-0.5C20.3,30.3,20,30.6,20,31v2.2
				c0,0.4,0.3,0.8,0.8,0.8h6.5c0.4,0,0.8-0.3,0.8-0.8V31z"/>
		</g>
		<g>
			<path style="fill:#4C4D5E;" d="M35.5,2.8c0-0.8-0.7-1.5-1.5-1.5H14c-0.8,0-1.5,0.7-1.5,1.5v12.5c0,3.9,1.2,7.5,3.3,10
				c2.1,2.6,5,4,8.2,4s6.1-1.4,8.2-4c2.1-2.6,3.3-6.1,3.3-10L35.5,2.8L35.5,2.8z"/>
		</g>
		<g>
			<path style="fill:#4C4D5E;" d="M11.1,18.3c-2.1-0.8-3-2.6-3-5.5V6h2.8V3H6.5C5.7,3,5,3.6,5,4.5v8.3c0,5,2.4,8.1,6.9,8.8
				C11.5,20.6,11.2,19.4,11.1,18.3z"/>
		</g>
		<g>
			<path style="fill:#4C4D5E;" d="M14,36.2c-0.8,0-1.5,0.7-1.5,1.5v7.5c0,0.8,0.7,1.5,1.5,1.5h20c0.8,0,1.5-0.7,1.5-1.5v-7.5
				c0-0.8-0.7-1.5-1.5-1.5H14z"/>
		</g>
		<g>
			<path style="fill:#4C4D5E;" d="M41.5,3h-4.3v3H40v6.8c0,3-1,4.8-3,5.5c-0.2,1.2-0.4,2.3-0.8,3.3c4.4-0.7,6.9-3.8,6.9-8.8V4.5
				C43,3.6,42.3,3,41.5,3z"/>
		</g>
	</g>
</g>
<g id="Layer_4" style="display:none;">
	<g style="display:inline;">
		<g>
			<g>
				<path style="fill:#1AC9AB;" d="M39.7,8.3C35.5,4.1,29.9,1.8,24,1.8S12.5,4.1,8.3,8.3S1.8,18.1,1.8,24s2.3,11.5,6.5,15.7
					s9.8,6.5,15.7,6.5s11.5-2.3,15.7-6.5s6.5-9.8,6.5-15.7S43.9,12.5,39.7,8.3z M24,41.8c-9.8,0-17.8-8-17.8-17.8c0,0,0,0,0,0
					c0,0,0,0,0,0c0,0,0,0,0,0c0-9.7,7.9-17.6,17.6-17.7c0,0,0,0,0.1,0c0,0,0,0,0,0c0,0,0.1,0,0.1,0c9.8,0,17.8,8,17.8,17.8
					S33.8,41.8,24,41.8z"/>
			</g>
		</g>
		<g>
			<g>
				<path style="fill:#1AC9AB;" d="M37.5,25.1c-0.7,0-1.3-0.6-1.3-1.3c0-0.7,0.6-1.3,1.3-1.3h1.6c-0.7-7.3-6.6-13.1-14-13.6v1.4
					c0,0.7-0.6,1.3-1.3,1.3c-0.7,0-1.3-0.6-1.3-1.3V8.9c-7.2,0.7-13,6.5-13.6,13.7h1.4c0.7,0,1.3,0.6,1.3,1.3s-0.6,1.3-1.3,1.3H8.9
					c0.6,7.4,6.5,13.2,13.8,13.9v-1.7c0-0.7,0.6-1.3,1.3-1.3s1.3,0.6,1.3,1.3v1.7c7.4-0.6,13.3-6.6,13.8-14.1H37.5z M29.3,20.5
					l-4.4,4.4c-0.2,0.2-0.6,0.4-0.9,0.4c-0.3,0-0.7-0.1-0.9-0.4l-7.6-7.6c-0.5-0.5-0.5-1.3,0-1.9c0.5-0.5,1.3-0.5,1.9,0l6.7,6.7
					l3.5-3.5c0.5-0.5,1.3-0.5,1.9,0C29.8,19.2,29.8,20,29.3,20.5z"/>
			</g>
		</g>
	</g>
</g>
</svg>
