<?xml version="1.0" encoding="utf-8"?>
<!-- Generator: Adobe Illustrator 24.1.1, SVG Export Plug-In . SVG Version: 6.00 Build 0)  -->
<svg version="1.1" id="Capa_1" xmlns="http://www.w3.org/2000/svg" xmlns:xlink="http://www.w3.org/1999/xlink" x="0px" y="0px"
	 viewBox="0 0 505.1 505.1" style="enable-background:new 0 0 505.1 505.1;" xml:space="preserve">
<style type="text/css">
	.st0{fill:#C0C6D1;}
</style>
<g>
	<g id="Layer_7_2_">
		<path class="st0" d="M496.7,307.6c0-33.1-15.5-62.5-39.6-81.5v-26.8C457.1,89.4,367.6,0,257.7,0C147.8,0,58.4,89.4,58.4,199.4V219
			c-29.9,18.2-49.9,51.1-49.9,88.6c0,57.2,46.4,103.6,103.6,103.6V204c-7.4,0-14.6,0.8-21.5,2.2v-6.9c0-92.1,75-167.1,167.1-167.1
			c92.2,0,167.1,75,167.1,167.1v9.6c-10-3.2-20.7-5-31.8-5v207.3c6.7,0,13.3-0.7,19.6-1.9c-10.5,22.3-34.4,56-85.2,65.6
			c-3.3-3.7-8.1-6.1-13.4-6.1h-32.3c-10,0-18.1,8.1-18.1,18.1c0,10,8.1,18.1,18.1,18.1H314c7.8,0,14.3-4.9,16.9-11.8
			C402.3,480,428,424.5,435.6,402C471.6,385.8,496.7,349.7,496.7,307.6z"/>
	</g>
</g>
</svg>
